<svg width="282" height="31" viewBox="0 0 282 31" fill="none" xmlns="http://www.w3.org/2000/svg">
<g clip-path="url(#clip0_8_284)">
<path d="M17.0461 0.0202637H30.2347V5.99273H16.1898C13.6548 5.99273 11.7326 6.46885 10.4232 7.42108C8.63997 8.37481 7.27536 10.2154 6.32933 12.943C6.13807 13.7254 6.03296 14.5271 6.01595 15.3333C6.01595 17.6493 6.86561 19.8271 8.56494 21.8668C9.67722 22.9617 10.7218 23.6864 11.6988 24.0408C12.7699 24.535 14.2404 24.782 16.1104 24.782H30.2347V30.7522H16.7725C13.3311 30.7522 10.7822 30.3257 9.12549 29.4726C5.42229 27.8204 2.76957 25.117 1.16735 21.3621C0.385274 19.4672 -0.0118972 17.43 -0.000111398 15.3739C-0.000111398 10.7989 1.77572 6.8939 5.32739 3.65872C7.65201 1.85789 9.75447 0.794514 11.6348 0.468593C12.597 0.171209 14.4008 0.0217656 17.0461 0.0202637ZM14.4971 12.4316H30.2347V18.3387H14.4971V12.4316Z" fill="white"/>
<path d="M49.9359 14.252V18.6992H34.6641V14.252H49.9359Z" fill="white"/>
<path d="M51.2181 0.0428467H67.973C74.0435 0.0428467 78.2565 2.75085 80.612 8.16685C81.1901 9.71929 81.4804 11.3679 81.4683 13.0286C81.4683 16.6333 80.0897 19.7874 77.3325 22.4909C75.6332 24.0259 73.5506 25.0637 71.0848 25.6044C70.1301 25.7417 69.1666 25.8057 68.2025 25.7959L57.2562 25.9243V30.7433H51.1761V19.8527H67.728C69.8879 19.8527 71.4688 19.4404 72.4707 18.6159C73.7522 17.7778 74.6717 16.426 75.2294 14.5606C75.3261 14.1331 75.3815 13.697 75.3949 13.2584V12.6164C75.3949 11.0093 74.7196 9.44575 73.3689 7.92579C71.9624 6.66266 70.4028 6.03034 68.6903 6.02884H51.2181V0.0428467Z" fill="white"/>
<path d="M84.5977 0.0428467H90.6556V14.5651C90.6556 18.6309 92.1806 21.5874 95.2306 23.4348C96.568 24.336 98.3438 24.7866 100.558 24.7866H114.888V30.7568H100.763C96.938 30.7568 93.8807 29.939 91.5914 28.3034C90.9543 27.973 89.9965 27.1747 88.718 25.9085C87.0613 24.0041 85.9402 22.0853 85.3546 20.1523C84.8544 18.688 84.6035 16.5905 84.6021 13.86L84.5977 0.0428467Z" fill="white"/>
<path d="M134.401 0H148.305V30.75H142.273V5.99275L136.884 6.01302H135.589C132.58 6.01302 130.908 6.14144 130.574 6.39827C128.752 6.91164 127.148 8.02911 126.015 9.57488C124.678 11.5274 124.009 13.4679 124.009 15.3964C124.009 17.7845 124.914 19.9811 126.726 21.9862C127.938 23.1667 128.983 23.8771 129.859 24.1174C130.742 24.568 132.253 24.7933 134.392 24.7933H138.586V30.7432H133.563C129.83 30.7432 126.676 29.7407 124.099 27.7356C122.234 26.2337 120.988 24.8691 120.361 23.6421C118.8 21.1128 118.02 18.5257 118.021 15.8808V14.9796C118.021 11.2848 119.379 7.8942 122.095 4.80771C123.737 3.18261 125.081 2.15604 126.125 1.72798C127.116 1.20605 128.16 0.798026 129.239 0.511411C130.422 0.17047 132.143 0 134.401 0Z" fill="white"/>
<path d="M163.623 30.75V25.717C161.197 25.0547 158.929 23.8932 156.958 22.3039C155.302 20.7839 154.222 19.5185 153.721 18.5077C153.024 17.3653 152.483 16.1314 152.112 14.84C151.67 13.4191 151.45 11.4854 151.45 9.03873V0.0428467H157.508V9.31809C157.508 12.0216 158.023 14.1048 159.053 15.5677C159.26 16.0363 159.928 16.7827 161.056 17.8071C162.616 19.1166 164.573 19.8326 166.592 19.8326C168.612 19.8326 170.569 19.1166 172.129 17.8071C173.257 16.7812 173.926 16.0348 174.135 15.5677C175.165 14.1033 175.679 12.0201 175.679 9.31809V0.0428467H181.737V9.04098C181.737 11.4876 181.517 13.4214 181.075 14.8422C180.718 16.1386 180.176 17.3743 179.467 18.51C178.966 19.5193 177.894 20.7847 176.251 22.3061C174.271 23.8916 171.997 25.0518 169.566 25.717V30.75H163.623Z" fill="white"/>
<path d="M201.911 0.0202637H215.093V5.99273H201.05C198.517 5.99273 196.595 6.46885 195.286 7.42108C193.503 8.37481 192.138 10.2154 191.192 12.943C191.001 13.7254 190.896 14.5271 190.879 15.3333C190.879 17.6493 191.727 19.8271 193.425 21.8667C194.539 22.9617 195.584 23.6863 196.559 24.0408C197.632 24.5379 199.103 24.7873 200.973 24.7888H215.097V30.759H201.635C198.197 30.759 195.648 30.3324 193.99 29.4793C190.286 27.8272 187.633 25.1237 186.032 21.3689C185.248 19.4731 184.85 17.434 184.862 15.3761C184.862 10.8012 186.638 6.89615 190.188 3.66097C192.517 1.85864 194.621 0.794514 196.502 0.468593C197.463 0.171209 199.266 0.0217656 201.911 0.0202637ZM199.364 12.4316H215.093V18.3387H199.364V12.4316Z" fill="white"/>
<path d="M218.288 0.0202637H237.632C241.051 0.0202637 243.725 1.06486 245.654 3.15406C246.401 3.8217 247.012 4.63323 247.451 5.54215C248.167 6.93328 248.553 8.47662 248.578 10.048V10.9221C248.578 13.175 247.622 15.3716 245.709 17.5119C244.484 18.7134 243.37 19.4809 242.368 19.8143C244.902 22.5749 246.168 26.2216 246.168 30.7545H240.091V30.2859C240.091 26.9305 238.761 24.2646 236.101 22.288C234.582 21.1931 232.596 20.6457 230.142 20.6457H218.288V14.7138H238.007C240.166 14.7138 241.628 13.6263 242.395 11.4515C242.479 11.001 242.534 10.6405 242.562 10.3431C242.562 9.13404 242.068 8.03913 241.079 7.05836C240.316 6.40813 239.357 6.04683 238.363 6.03554C238.363 5.97921 238.071 5.94993 237.48 5.94993H218.28L218.288 0.0202637Z" fill="white"/>
<path d="M261.279 0.0428511H281.561V6.35101H261.089C259.49 6.35101 258.509 7.15379 258.145 8.75937V9.20995C258.145 10.1622 258.668 10.9582 259.712 11.598C260.031 11.726 260.371 11.791 260.714 11.7895H271.009C273.658 11.7895 275.454 12.0666 276.399 12.6209C278.74 13.6887 280.358 15.3168 281.254 17.5052C281.739 18.7622 281.994 20.0992 282.007 21.45C282.007 24.52 280.6 27.1071 277.787 29.2113C276.894 29.7768 275.922 30.2013 274.905 30.4707C274.097 30.6554 272.753 30.7478 270.873 30.7478H251.739L251.717 24.4396H272.272C273.999 24.4396 275.103 23.5723 275.582 21.8375L275.624 21.263C275.624 20.0389 275.036 19.1002 273.859 18.4469C273.357 18.202 272.805 18.0853 272.25 18.1067H260.699C257.677 18.1067 255.156 16.755 253.138 14.0515C252.295 12.6909 251.837 11.1191 251.814 9.50959V8.67601C251.814 5.52193 253.318 3.02721 256.327 1.19184C257.567 0.424344 259.218 0.0413491 261.279 0.0428511Z" fill="white"/>
</g>
<defs>
<clipPath id="clip0_8_284">
<rect width="282" height="30.75" fill="white"/>
</clipPath>
</defs>
</svg>
